<svg version="1.0" xmlns="http://www.w3.org/2000/svg" viewBox="0 0 1280.000000 637.000000"
 preserveAspectRatio="xMidYMid meet">
<g transform="translate(0.000000,637.000000) scale(0.100000,-0.100000)"
fill="#b09b8c" stroke="none">

<path d="M7410 5173 c-278 -46 -477 -294 -522 -648 -36 -281 96 -584 381 -878
213 -219 395 -349 821 -582 225 -123 450 -253 450 -260 0 -2 -73 32 -162 75
-564 272 -1056 345 -1530 225 -200 -51 -393 -142 -577 -272 -24 -17 -24 -17
-13 4 14 26 17 25 -83 56 -125 39 -218 50 -367 44 -195 -8 -335 -54 -499 -164
-107 -72 -157 -120 -383 -367 -373 -407 -457 -475 -641 -526 -44 -12 -84 -26
-89 -31 -34 -32 244 -55 490 -40 311 19 548 65 702 136 91 43 224 141 348 258
l91 87 -24 -60 c-68 -169 -92 -404 -59 -571 35 -175 112 -314 251 -455 335
-340 802 -441 1251 -272 382 145 603 469 568 837 l-8 86 -7 -135 c-5 -115 -11
-149 -39 -233 -92 -275 -302 -469 -595 -547 -114 -31 -320 -38 -438 -16 -252
48 -489 178 -675 370 -382 395 -343 894 103 1341 203 204 436 333 725 402 145
34 422 43 590 19 496 -72 993 -314 1690 -821 187 -137 386 -289 755 -580 724
-571 1234 -908 1820 -1205 257 -130 756 -342 771 -328 2 2 -50 26 -114 52
-502 208 -1108 561 -1700 989 -197 142 -459 342 -535 409 l-38 33 30 65 c123
265 129 617 13 845 -32 64 -70 120 -272 400 -194 268 -252 354 -307 451 -53
93 -60 117 -78 252 -8 62 -19 120 -24 129 -7 14 -11 13 -24 -8 -20 -31 -61
-173 -87 -301 -56 -280 -71 -589 -36 -747 43 -200 140 -418 269 -609 l77 -113
-78 66 c-614 529 -795 663 -1401 1032 -560 342 -748 474 -930 655 -227 224
-328 425 -338 674 -11 244 59 432 211 571 142 130 341 186 527 149 121 -25
201 -67 284 -151 110 -109 155 -226 155 -396 0 -191 -65 -321 -204 -411 -67
-43 -67 -51 1 -12 219 129 301 451 178 694 -114 224 -421 376 -675 333z"/>

<path d="M7791 1874 c0 -11 3 -14 6 -6 3 7 2 16 -1 19 -3 4 -6 -2 -5 -13z"/>
</g>
</svg>
